<svg xmlns="http://www.w3.org/2000/svg" width="1280" height="720" viewBox="0 0 1280 720"><path fill="red" d="M221.9 302.3h37v58h37.5v-61.1h37.5v153.9h-37v-61.4h-33l-5.3 3.4v58.2h-36.9l.2-151zm-47.2 40.2c-6.8-47.5-41.4-44.6-41.4-44.6-50.7 5.2-43.5 67.6-43.5 67.6 2.1 61.7 43 59.8 43 59.8 42.2-2.4 40.4-45.4 40.4-45.4H212c-.2 46.7-36.4 68.5-36.4 68.5-26.2 16.5-57.7 11.5-57.7 11.5-42-6.6-58.5-49.3-58.5-49.3-19.4-53.2-2.3-94.1-2.3-94.1 21.2-56.7 77.1-57.2 77.1-57.2 31.7 1 51.7 20.7 51.7 20.7 31.2 27.8 27.3 62.2 27.3 62.2l-38.5.3zm226.6 12L390 399.1l11.3.3h11.3l-11.3-44.9zm0 75.8-15.7-.2-6.3 22.8h-40.9l41.2-150.3h44.1l39.6 150.3h-41.9l-4.8-22.3-15.3-.3zm313.4-128h36.7v56.9h36.7v-56.7h37.8v150.6h-37.8v-61.6h-38v58.2h-35.4V302.3zm-47.5 50.9c-5-20.5-18.9-18.9-18.9-18.9-21-1.1-23.1 36.9-23.1 36.9-1.6 50.9 23.6 48 23.6 48 18.9-.7 20.5-19.9 20.5-19.9H652v-31h52.7V452h-31.2l.2-8.7c-7.3 10.8-31.2 11.5-31.2 11.5-62.5-2.6-54.6-90.7-54.6-90.7 6.1-68.4 58.7-66.9 58.7-66.9 58.7 3.9 54.6 55.8 54.6 55.8l-34 .2zm-198.8-50.9h39.3l34.7 75V302l38.3.5v150.3h-38.3l-37-79.2v79.5h-37V302.3zm442.7 16.3-13.9 38.8s-1.1 5.7-11.8 8.9l-35.7 12 42.5 17.9s5.5 2.6 5.8 8.4l13.1 37.5 13.9-37.5s2.6-8.7 15.2-11l32.2-12.8-37.4-15.5s-8.4-2.9-10.5-14.7l-11.6-37-1.8 5zm0 139.5c-7.8-.5-43.8-5-65-33.6 0 0-15.2-17.3-14.6-56.9 0 0 6.3-68.7 79.7-73.2 0 0 77.4 4.2 80 81.8 0 0 2.6 73.7-78.4 82.1l-1.7-.2zm84.4-156.3h37.5l37.7 79.7v-79h35.6v150.3h-34.9l-38.5-77.9v78.2l-36.8-.2-.6-151.1zm196 49c-1.6-19.1-17.8-18.4-17.8-18.4-27 2.6-24.4 43.8-24.4 43.8.8 41.7 25.5 42 25.5 42 17.6-.3 20.2-19.4 20.2-19.4l-16.8-.2v-31.5l51.9-.5-.3 83.1h-30.7v-12.8c-3.9 14.7-32 16.8-32 16.8-56.9-1.8-55.9-78.7-55.9-78.7 6.9-88.1 65.4-78.7 65.4-78.7 49.8 4.5 50.6 54.5 50.6 54.5h-35.7z"/></svg>